<svg xmlns="http://www.w3.org/2000/svg" viewBox="0 0 1440 320"><path fill="#8fec8f" fill-opacity="1" d="M0,160L18.5,154.7C36.9,149,74,139,111,154.7C147.7,171,185,213,222,197.3C258.5,181,295,107,332,90.7C369.2,75,406,117,443,117.3C480,117,517,75,554,90.7C590.8,107,628,181,665,181.3C701.5,181,738,107,775,117.3C812.3,128,849,224,886,229.3C923.1,235,960,149,997,101.3C1033.8,53,1071,43,1108,58.7C1144.6,75,1182,117,1218,154.7C1255.4,192,1292,224,1329,229.3C1366.2,235,1403,213,1422,202.7L1440,192L1440,320L1421.5,320C1403.1,320,1366,320,1329,320C1292.3,320,1255,320,1218,320C1181.5,320,1145,320,1108,320C1070.8,320,1034,320,997,320C960,320,923,320,886,320C849.2,320,812,320,775,320C738.5,320,702,320,665,320C627.7,320,591,320,554,320C516.9,320,480,320,443,320C406.2,320,369,320,332,320C295.4,320,258,320,222,320C184.6,320,148,320,111,320C73.8,320,37,320,18,320L0,320Z"></path></svg>